<svg width="56" height="30" viewBox="0 0 56 30" fill="none" xmlns="http://www.w3.org/2000/svg">
<mask id="mask0" mask-type="alpha" maskUnits="userSpaceOnUse" x="47" y="0" width="9" height="10">
<path fill-rule="evenodd" clip-rule="evenodd" d="M47.2427 0.799927H55.6427V9.21081H47.2427V0.799927Z" fill="white"/>
</mask>
<g mask="url(#mask0)">
<path fill-rule="evenodd" clip-rule="evenodd" d="M52.2323 3.39962C52.0275 3.28522 51.6987 3.22762 51.2475 3.22762H50.5523V4.89962H51.2875C51.6323 4.89962 51.8907 4.86522 52.0627 4.79642C52.3803 4.67082 52.5395 4.43002 52.5395 4.07562C52.5395 3.73962 52.4371 3.51402 52.2323 3.39962ZM51.3539 2.67242C51.9267 2.67242 52.3467 2.72762 52.6139 2.83882C53.0907 3.03722 53.3299 3.42682 53.3299 4.00762C53.3299 4.42042 53.1795 4.72442 52.8795 4.91882C52.7195 5.02202 52.4979 5.09722 52.2123 5.14282C52.5731 5.19962 52.8371 5.35002 53.0043 5.59482C53.1715 5.83882 53.2555 6.07722 53.2555 6.30922V6.64682C53.2555 6.75402 53.2587 6.86762 53.2667 6.99002C53.2739 7.11162 53.2875 7.19242 53.3067 7.23082L53.3355 7.28762H52.5739C52.5699 7.27162 52.5659 7.25722 52.5627 7.24202C52.5587 7.22682 52.5547 7.20922 52.5507 7.19082L52.5339 7.04202V6.67642C52.5339 6.14442 52.3883 5.79242 52.0987 5.62042C51.9267 5.52202 51.6251 5.47242 51.1939 5.47242H50.5523V7.28762H49.7395V2.67242H51.3539ZM48.8811 2.43722C48.1779 3.14362 47.8267 3.99722 47.8267 4.99722C47.8267 6.00442 48.1763 6.86442 48.8747 7.57322C49.5771 8.28362 50.4307 8.63882 51.4339 8.63882C52.4379 8.63882 53.2915 8.28362 53.9939 7.57322C54.6963 6.86442 55.0475 6.00442 55.0475 4.99722C55.0475 3.99722 54.6963 3.14362 53.9939 2.43722C53.2875 1.72762 52.4339 1.37242 51.4339 1.37242C50.4379 1.37242 49.5867 1.72762 48.8811 2.43722ZM54.4115 7.97402C53.5907 8.79962 52.5987 9.21082 51.4339 9.21082C50.2699 9.21082 49.2795 8.79962 48.4627 7.97402C47.6491 7.15402 47.2427 6.15962 47.2427 4.99162C47.2427 3.83482 47.6531 2.84602 48.4739 2.02522C49.2907 1.20842 50.2779 0.799622 51.4339 0.799622C52.5987 0.799622 53.5907 1.20842 54.4115 2.02522C55.2323 2.84202 55.6427 3.83082 55.6427 4.99162C55.6427 6.15562 55.2323 7.15002 54.4115 7.97402Z" fill="#020303"/>
</g>
<mask id="mask1" mask-type="alpha" maskUnits="userSpaceOnUse" x="0" y="8" width="18" height="22">
<path fill-rule="evenodd" clip-rule="evenodd" d="M0 8.53673H17.9004V29.4119H0V8.53673Z" fill="white"/>
</mask>
<g mask="url(#mask1)">
<path fill-rule="evenodd" clip-rule="evenodd" d="M12.6636 21.8031V20.3247L8.5948 20.5807C6.314 20.7447 5.2004 21.5655 5.2004 23.0071C5.2004 24.5031 6.4964 25.4159 8.3388 25.4159C10.8028 25.4159 12.6636 23.8463 12.6636 21.8031ZM12.4268 26.4743C11.386 28.3175 9.1972 29.4119 6.5876 29.4119C2.7188 29.4119 -0.000396729 27.0399 -0.000396729 23.3535C-0.000396729 19.7039 2.7916 17.5871 7.7916 17.2951L12.6636 17.0039V15.3615C12.6636 13.6831 11.4596 12.7335 9.27 12.7335C7.354 12.7335 6.0764 13.3903 5.6388 14.5951H0.748403C1.0948 10.8727 4.5076 8.53673 9.562 8.53673C14.89 8.53673 17.9004 11.0543 17.9004 15.3615V29.1015H12.7548" fill="#020303"/>
</g>
<mask id="mask2" mask-type="alpha" maskUnits="userSpaceOnUse" x="0" y="0" width="56" height="30">
<path fill-rule="evenodd" clip-rule="evenodd" d="M0 29.4119H55.6432V0.799927H0V29.4119Z" fill="white"/>
</mask>
<g mask="url(#mask2)">
<path fill-rule="evenodd" clip-rule="evenodd" d="M21.2712 21.4727H26.5816V9.17673H21.2712V21.4727Z" fill="#020303"/>
<path fill-rule="evenodd" clip-rule="evenodd" d="M23.8972 23.7922C25.3636 23.7778 26.5636 24.9546 26.5788 26.421C26.5932 27.8866 25.4156 29.0874 23.95 29.1018H23.9492C22.4828 29.1162 21.2828 27.9394 21.2684 26.4738C21.254 25.0074 22.4308 23.8074 23.8972 23.7922Z" fill="#020303"/>
<path fill-rule="evenodd" clip-rule="evenodd" d="M33.2269 13.3539H29.9789V9.17552H33.2269V7.13232C33.2269 3.13552 35.2701 1.10992 40.1245 1.10992C41.2005 1.10992 42.0949 1.18352 42.8613 1.31072V5.06992C42.5149 5.03312 41.9669 4.97872 41.2741 4.97872C39.1933 4.97872 38.4269 5.79952 38.4269 7.51472V9.17552H42.6973V13.3539H38.5365V29.1019H33.2269V13.3539Z" fill="#020303"/>
</g>
</svg>
