<svg width="17" height="16" viewBox="0 0 17 16" fill="none" xmlns="http://www.w3.org/2000/svg">
<path fill-rule="evenodd" clip-rule="evenodd" d="M6.99962 0.599976H2.19962V2.19998H6.99962V0.599976ZM0.599624 3.79998C0.599624 3.35838 0.963624 2.99998 1.39322 2.99998H15.806C16.2444 2.99998 16.5996 3.35598 16.5996 3.79998V15C16.5996 15.4416 16.2356 15.8 15.806 15.8H1.39322C1.18177 15.7996 0.979186 15.7149 0.830264 15.5648C0.681343 15.4147 0.598347 15.2114 0.599624 15V3.79998ZM2.19962 4.59998V14.2H14.9996V4.59998H2.19962ZM12.5996 9.39998C12.5996 10.7255 11.5251 11.8 10.1996 11.8C8.87414 11.8 7.79962 10.7255 7.79962 9.39998C7.79962 8.07449 8.87414 6.99998 10.1996 6.99998C11.5251 6.99998 12.5996 8.07449 12.5996 9.39998ZM10.1996 13.4C7.99048 13.4 6.19962 11.6091 6.19962 9.39998C6.19962 7.19084 7.99048 5.39998 10.1996 5.39998C12.4088 5.39998 14.1996 7.19084 14.1996 9.39998C14.1996 11.6091 12.4088 13.4 10.1996 13.4Z" fill="white"/>
</svg>
