<svg width="14" height="14" viewBox="0 0 14 14" fill="none" xmlns="http://www.w3.org/2000/svg">
<path fill-rule="evenodd" clip-rule="evenodd" d="M7.00004 13.6667C3.31804 13.6667 0.333374 10.682 0.333374 7.00004C0.333374 3.31804 3.31804 0.333374 7.00004 0.333374C10.682 0.333374 13.6667 3.31804 13.6667 7.00004C13.6667 10.682 10.682 13.6667 7.00004 13.6667ZM7.00004 12.3334C9.94556 12.3334 12.3334 9.94556 12.3334 7.00004C12.3334 4.05452 9.94556 1.66671 7.00004 1.66671C4.05452 1.66671 1.66671 4.05452 1.66671 7.00004C1.66671 9.94556 4.05452 12.3334 7.00004 12.3334ZM10.3334 7.00004H7.66671V3.66671H6.33337V8.33337H10.3334V7.00004Z" fill="#6D6D6D"/>
</svg>
