<svg width="77" height="17" viewBox="0 0 77 17" fill="none" xmlns="http://www.w3.org/2000/svg">
<path fill-rule="evenodd" clip-rule="evenodd" d="M0 0.194489V16.2555H13.891V13.4085H3.257V8.93849H12.485V6.25749H3.257V3.05149H13.676V0.194489H0Z" fill="#020303"/>
<mask id="mask0" mask-type="alpha" maskUnits="userSpaceOnUse" x="16" y="0" width="18" height="17">
<path fill-rule="evenodd" clip-rule="evenodd" d="M16.5329 0H33.2299V16.471H16.5329V0Z" fill="white"/>
</mask>
<g mask="url(#mask0)">
<path fill-rule="evenodd" clip-rule="evenodd" d="M16.5329 8.12751C16.5329 6.98351 16.7489 5.91651 17.1799 4.92751C17.6119 3.93751 18.2369 3.07751 19.0549 2.34851C19.8739 1.61851 20.8739 1.04451 22.0559 0.626512C23.2379 0.208512 24.5749 -0.000488281 26.0679 -0.000488281C27.3759 -0.000488281 28.5769 0.131512 29.6689 0.395512C30.7619 0.659512 31.7779 1.06251 32.7159 1.60351L31.2159 4.06851C30.9349 3.88451 30.6109 3.71951 30.2439 3.57551C29.8779 3.43251 29.4879 3.31051 29.0739 3.21151C28.6589 3.11151 28.2309 3.03451 27.7889 2.98051C27.3469 2.92551 26.9099 2.89851 26.4789 2.89851C25.4379 2.89851 24.5099 3.02551 23.6949 3.28251C22.8789 3.53951 22.1929 3.89951 21.6349 4.36151C21.0759 4.82351 20.6509 5.37551 20.3599 6.01651C20.0689 6.65651 19.9239 7.35951 19.9239 8.12751C19.9239 8.92251 20.0739 9.65151 20.3759 10.3155C20.6769 10.9815 21.1139 11.5545 21.6859 12.0365C22.2579 12.5205 22.9559 12.8975 23.7819 13.1675C24.6069 13.4385 25.5399 13.5735 26.5819 13.5735C27.0539 13.5735 27.5239 13.5395 27.9899 13.4705C28.4549 13.4015 28.9059 13.3085 29.3409 13.1885C29.7759 13.0675 30.1949 12.9245 30.5989 12.7565C31.0029 12.5885 31.3799 12.4055 31.7299 12.2065L33.2299 14.6735C32.3529 15.2345 31.3389 15.6745 30.1879 15.9925C29.0369 16.3125 27.8149 16.4715 26.5199 16.4715C24.8689 16.4715 23.4209 16.2565 22.1739 15.8285C20.9269 15.4005 19.8859 14.8115 19.0499 14.0615C18.2149 13.3115 17.5859 12.4275 17.1649 11.4105C16.7429 10.3935 16.5329 9.29851 16.5329 8.12751Z" fill="#020303"/>
</g>
<path fill-rule="evenodd" clip-rule="evenodd" d="M36.8259 0.194885H40.0829L45.9199 6.05189L51.7559 0.194885H55.0129V16.2559H51.7559V4.70589L45.9199 10.3269L40.0829 4.70589V16.2559H36.8259V0.194885Z" fill="#020303"/>
<path fill-rule="evenodd" clip-rule="evenodd" d="M70.2917 10.8706L66.8187 3.57561L63.4377 10.8706H70.2917ZM65.0617 0.194611H68.5137L76.2817 16.2556H72.8607L71.5757 13.5526H62.1947L60.9517 16.2556H57.5197L65.0617 0.194611Z" fill="#020303"/>
</svg>
