<svg width="27" height="19" viewBox="0 0 27 19" fill="none" xmlns="http://www.w3.org/2000/svg">
<path fill-rule="evenodd" clip-rule="evenodd" d="M26.0479 2.904C25.7578 1.74479 24.8697 0.82931 23.7199 0.504C21.6559 0 13.3999 0 13.3999 0C13.3999 0 5.1439 0 3.0799 0.552C1.93007 0.87731 1.04205 1.79279 0.751905 2.952C0.374162 5.04667 0.189388 7.17157 0.199905 9.3C0.18644 11.4445 0.371226 13.5856 0.751905 15.696C1.07153 16.8183 1.95435 17.692 3.0799 18C5.1439 18.552 13.3999 18.552 13.3999 18.552C13.3999 18.552 21.6559 18.552 23.7199 18C24.8697 17.6747 25.7578 16.7592 26.0479 15.6C26.4227 13.5211 26.6075 11.4124 26.5999 9.3C26.6134 7.15555 26.4286 5.01444 26.0479 2.904Z" fill="#63C19C"/>
<path fill-rule="evenodd" clip-rule="evenodd" d="M10.7 13.224L17.6 9.29998L10.7 5.37598V13.224Z" fill="white"/>
</svg>
