<svg width="22" height="22" viewBox="0 0 22 22" fill="none" xmlns="http://www.w3.org/2000/svg">
<path fill-rule="evenodd" clip-rule="evenodd" d="M15.4898 21.0557C14.1156 21.6633 12.5891 22 10.9765 22C9.48199 22 8.05985 21.7064 6.76458 21.1728C6.99908 20.7011 7.3056 20.2645 7.68653 19.88C8.57242 18.8049 9.85687 18.2439 11.1413 18.2439C12.5145 18.2439 13.7111 18.8049 14.6849 19.88C15.0069 20.236 15.2758 20.6311 15.4898 21.0557ZM19.7586 17.6902C21.1675 15.8432 22 13.5283 22 10.9996C22 4.92151 17.1112 0 10.9765 0C4.88794 0 0 4.92151 0 10.9996C0 13.5287 0.832542 15.8439 2.23843 17.691C3.30006 16.0425 4.79418 14.7134 6.55868 13.8729C6.08636 13.0098 5.85748 12.0375 5.85748 10.9996C5.85748 9.50466 6.36407 8.05721 7.42518 6.99556C8.34766 5.88558 9.68517 5.30642 11.0227 5.30642C12.4526 5.30642 13.6985 5.88558 14.7126 6.99556C15.6813 8.05721 16.1887 9.45632 16.1887 10.9521C16.1887 12.0077 15.9516 13.0177 15.4921 13.9057C17.2349 14.7475 18.7084 16.0633 19.7586 17.6902Z" fill="#2F2F2F"/>
</svg>
