<svg width="17" height="20" viewBox="0 0 17 20" fill="none" xmlns="http://www.w3.org/2000/svg">
<path d="M10 11.5V6C10 3.79086 8.20914 2 6 2C3.79086 2 2 3.79086 2 6V11.5C2 15.0899 4.91015 18 8.5 18C12.0899 18 15 15.0899 15 11.5V2H17V11.5C17 16.1944 13.1944 20 8.5 20C3.80558 20 0 16.1944 0 11.5V6C-3.1942e-08 3.85641 1.14359 1.87564 3 0.803848C4.85641 -0.267949 7.14359 -0.267949 9 0.803848C10.8564 1.87564 12 3.85641 12 6V11.5C12 13.433 10.433 15 8.5 15C6.567 15 5 13.433 5 11.5V6H7V11.5C7 12.3284 7.67157 13 8.5 13C9.32843 13 10 12.3284 10 11.5Z" fill="black"/>
</svg>
