<svg width="15" height="18" viewBox="0 0 15 18" fill="none" xmlns="http://www.w3.org/2000/svg">
<path fill-rule="evenodd" clip-rule="evenodd" d="M6.6002 10.4C3.9482 10.4 1.8002 8.25205 1.8002 5.60005C1.8002 2.94805 3.9482 0.800049 6.6002 0.800049C9.2522 0.800049 11.4002 2.94805 11.4002 5.60005C11.4002 8.25205 9.2522 10.4 6.6002 10.4ZM6.6002 11.2V12.8C3.94923 12.8 1.8002 14.9491 1.8002 17.6H0.200195C0.200195 14.0654 3.06557 11.2 6.6002 11.2ZM9.8002 5.60005C9.8002 7.36805 8.3682 8.80005 6.6002 8.80005C4.8322 8.80005 3.4002 7.36805 3.4002 5.60005C3.4002 3.83205 4.8322 2.40005 6.6002 2.40005C8.3682 2.40005 9.8002 3.83205 9.8002 5.60005ZM8.6762 15.0496C8.57476 14.6228 8.57476 14.1781 8.6762 13.7512L7.8826 13.2928L8.6826 11.9072L9.4762 12.3656C9.79473 12.064 10.1798 11.8414 10.6002 11.716V10.8H12.2002V11.716C12.6258 11.8424 13.0098 12.068 13.3242 12.3656L14.1178 11.9072L14.9178 13.2928L14.1242 13.7512C14.2255 14.1778 14.2255 14.6222 14.1242 15.0488L14.9178 15.5072L14.1178 16.8928L13.3242 16.4344C13.0057 16.7361 12.6206 16.9587 12.2002 17.084V18H10.6002V17.084C10.1798 16.9587 9.79473 16.7361 9.4762 16.4344L8.6826 16.8928L7.8826 15.5072L8.6762 15.0496ZM12.6002 14.4C12.6002 15.0628 12.0629 15.6 11.4002 15.6C10.7375 15.6 10.2002 15.0628 10.2002 14.4C10.2002 13.7373 10.7375 13.2 11.4002 13.2C12.0629 13.2 12.6002 13.7373 12.6002 14.4Z" fill="black"/>
</svg>
