<svg width="14" height="12" viewBox="0 0 14 12" fill="none" xmlns="http://www.w3.org/2000/svg">
<path fill-rule="evenodd" clip-rule="evenodd" d="M0.333374 0.662C0.335913 0.297704 0.630414 0.0029056 0.994707 0H13.0054C13.3707 0 13.6667 0.296667 13.6667 0.662V11.338C13.6642 11.7023 13.3697 11.9971 13.0054 12H0.994707C0.629355 11.9996 0.333374 11.7034 0.333374 11.338V0.662ZM1.66671 1.33333V10.6667H12.3334V1.33333H1.66671ZM9.33404 5.778L6.08137 3.61C5.99962 3.55546 5.8945 3.5503 5.80781 3.59657C5.72111 3.64285 5.66689 3.73306 5.66671 3.83133V8.16867C5.66705 8.26672 5.72118 8.35667 5.80765 8.4029C5.89412 8.44913 5.99898 8.44417 6.08071 8.39L9.33404 6.222C9.40833 6.17256 9.45297 6.08924 9.45297 6C9.45297 5.91076 9.40833 5.82744 9.33404 5.778Z" fill="#6D6D6D"/>
</svg>
